<svg id="Layer_1" xmlns="http://www.w3.org/2000/svg" xmlns:xlink="http://www.w3.org/1999/xlink" width="350" height="350" viewBox="0 0 350 350"><style><![CDATA[
	.st0{clip-path:url(#SVGID_285_);fill:#434244;}
	.st1{clip-path:url(#SVGID_247_);fill:#FFFFFF;}
	.st2{clip-path:url(#SVGID_57_);fill:#F2F2F2;}
	.st3{clip-path:url(#SVGID_12_);fill:#434244;}
	.st4{clip-path:url(#SVGID_379_);fill:#DF9122;}
	.st5{clip-path:url(#SVGID_77_);fill:#FFFFFF;}
	.st6{clip-path:url(#SVGID_153_);enable-background:new    ;}
	.st7{clip-path:url(#SVGID_383_);fill:#FAAF43;}
	.st8{clip-path:url(#SVGID_303_);fill:#DF9122;}
	.st9{clip-path:url(#SVGID_111_);fill:#FFFFFF;}
	.st10{clip-path:url(#SVGID_205_);fill:#FAAF43;}
	.st11{clip-path:url(#SVGID_125_);fill:#F2F2F2;}
	.st12{clip-path:url(#SVGID_8_);fill:#FFFFFF;}
	.st13{clip-path:url(#SVGID_183_);fill:#434244;}
	.st14{clip-path:url(#SVGID_395_);fill:#FAAF43;}
	.st15{clip-path:url(#SVGID_337_);fill:#DF9122;}
	.st16{clip-path:url(#SVGID_145_);fill:#FFFFFF;}
	.st17{clip-path:url(#SVGID_239_);fill:#FAAF43;}
	.st18{fill:#EAEAEA;}
	.st19{clip-path:url(#SVGID_341_);fill:#FAAF43;}
	.st20{clip-path:url(#SVGID_159_);fill:#F2F2F2;}
	.st21{clip-path:url(#SVGID_69_);fill:#FAAF43;}
	.st22{clip-path:url(#SVGID_201_);fill:#DF9122;}
	.st23{clip-path:url(#SVGID_261_);fill:#F2F2F2;}
	.st24{clip-path:url(#SVGID_179_);fill:#FFFFFF;}
	.st25{clip-path:url(#SVGID_103_);fill:#FAAF43;}
	.st26{clip-path:url(#SVGID_281_);fill:#FFFFFF;}
	.st27{clip-path:url(#SVGID_91_);fill:#F2F2F2;}
	.st28{clip-path:url(#SVGID_375_);fill:#FAAF43;}
	.st29{clip-path:url(#SVGID_39_);fill:#F2F2F2;}
	.st30{clip-path:url(#SVGID_391_);fill:#DF9122;}
	.st31{clip-path:url(#SVGID_235_);fill:#DF9122;}
	.st32{clip-path:url(#SVGID_295_);fill:#F2F2F2;}
	.st33{clip-path:url(#SVGID_137_);fill:#FAAF43;}
	.st34{fill:#231F20;}
	.st35{clip-path:url(#SVGID_22_);fill:#F2F2F2;}
	.st36{clip-path:url(#SVGID_65_);fill:#DF9122;}
	.st37{clip-path:url(#SVGID_387_);fill:#FAAF43;}
	.st38{clip-path:url(#SVGID_85_);enable-background:new    ;}
	.st39{clip-path:url(#SVGID_16_);enable-background:new    ;}
	.st40{clip-path:url(#SVGID_269_);fill:#DF9122;}
	.st41{clip-path:url(#SVGID_2_);}
	.st42{clip-path:url(#SVGID_6_);}
	.st43{clip-path:url(#SVGID_333_);fill:#FAAF43;}
	.st44{clip-path:url(#SVGID_209_);fill:#FFFFFF;}
	.st45{fill:url(#SVGID_396_);}
	.st46{clip-path:url(#SVGID_323_);enable-background:new    ;}
	.st47{clip-path:url(#SVGID_99_);fill:#DF9122;}
	.st48{clip-path:url(#SVGID_273_);fill:#FAAF43;}
	.st49{clip-path:url(#SVGID_289_);enable-background:new    ;}
	.st50{clip-path:url(#SVGID_119_);enable-background:new    ;}
	.st51{clip-path:url(#SVGID_319_);fill:#434244;}
	.st52{clip-path:url(#SVGID_311_);fill:#FFFFFF;}
	.st53{clip-path:url(#SVGID_133_);fill:#DF9122;}
	.st54{clip-path:url(#SVGID_193_);fill:#F2F2F2;}
	.st55{fill:#FAAF43;}
	.st56{clip-path:url(#SVGID_361_);fill:#434244;}
	.st57{clip-path:url(#SVGID_353_);fill:#02304E;}
	.st58{fill:#FF5B00;}
	.st59{fill:#FFD400;}
	.st60{fill:#FFFFFF;}
	.st61{clip-path:url(#SVGID_129_);fill:#FAAF43;}
	.st62{clip-path:url(#SVGID_34_);fill:#FAAF43;}
	.st63{clip-path:url(#SVGID_167_);fill:#DF9122;}
	.st64{clip-path:url(#SVGID_231_);fill:#FAAF43;}
	.st65{clip-path:url(#SVGID_51_);enable-background:new    ;}
	.st66{clip-path:url(#SVGID_107_);fill:#FFFFFF;}
	.st67{clip-path:url(#SVGID_171_);fill:#FAAF43;}
	.st68{clip-path:url(#SVGID_217_);fill:#434244;}
	.st69{clip-path:url(#SVGID_61_);fill:#FAAF43;}
	.st70{clip-path:url(#SVGID_255_);enable-background:new    ;}
	.st71{clip-path:url(#SVGID_47_);fill:#434244;}
	.st72{clip-path:url(#SVGID_265_);fill:#FAAF43;}
	.st73{clip-path:url(#SVGID_101_);}
	.st74{clip-path:url(#SVGID_105_);}
	.st75{clip-path:url(#SVGID_109_);}
	.st76{clip-path:url(#SVGID_113_);}
	.st77{clip-path:url(#SVGID_117_);}
	.st78{clip-path:url(#SVGID_121_);}
	.st79{clip-path:url(#SVGID_123_);}
	.st80{clip-path:url(#SVGID_127_);}
	.st81{clip-path:url(#SVGID_131_);}
	.st82{clip-path:url(#SVGID_135_);}
	.st83{clip-path:url(#SVGID_139_);}
	.st84{clip-path:url(#SVGID_143_);}
	.st85{clip-path:url(#SVGID_147_);}
	.st86{clip-path:url(#SVGID_151_);}
	.st87{clip-path:url(#SVGID_155_);}
	.st88{clip-path:url(#SVGID_157_);}
	.st89{clip-path:url(#SVGID_161_);}
	.st90{clip-path:url(#SVGID_165_);}
	.st91{clip-path:url(#SVGID_169_);}
	.st92{clip-path:url(#SVGID_173_);}
	.st93{clip-path:url(#SVGID_177_);}
	.st94{clip-path:url(#SVGID_181_);}
	.st95{clip-path:url(#SVGID_185_);}
	.st96{clip-path:url(#SVGID_189_);}
	.st97{clip-path:url(#SVGID_191_);}
	.st98{clip-path:url(#SVGID_195_);}
	.st99{clip-path:url(#SVGID_199_);}
	.st100{clip-path:url(#SVGID_203_);}
	.st101{clip-path:url(#SVGID_207_);}
	.st102{clip-path:url(#SVGID_30_);fill:#DF9122;}
	.st103{clip-path:url(#SVGID_243_);fill:#FFFFFF;}
	.st104{clip-path:url(#SVGID_211_);}
	.st105{clip-path:url(#SVGID_215_);}
	.st106{clip-path:url(#SVGID_219_);}
	.st107{clip-path:url(#SVGID_223_);}
	.st108{clip-path:url(#SVGID_225_);}
	.st109{clip-path:url(#SVGID_229_);}
	.st110{clip-path:url(#SVGID_233_);}
	.st111{clip-path:url(#SVGID_237_);}
	.st112{clip-path:url(#SVGID_241_);}
	.st113{clip-path:url(#SVGID_245_);}
	.st114{clip-path:url(#SVGID_249_);}
	.st115{clip-path:url(#SVGID_253_);}
	.st116{clip-path:url(#SVGID_257_);}
	.st117{clip-path:url(#SVGID_259_);}
	.st118{clip-path:url(#SVGID_263_);}
	.st119{clip-path:url(#SVGID_267_);}
	.st120{clip-path:url(#SVGID_271_);}
	.st121{clip-path:url(#SVGID_275_);}
	.st122{clip-path:url(#SVGID_279_);}
	.st123{clip-path:url(#SVGID_283_);}
	.st124{clip-path:url(#SVGID_287_);}
	.st125{clip-path:url(#SVGID_291_);}
	.st126{clip-path:url(#SVGID_293_);}
	.st127{clip-path:url(#SVGID_297_);}
	.st128{clip-path:url(#SVGID_95_);fill:#FAAF43;}
	.st129{clip-path:url(#SVGID_301_);}
	.st130{clip-path:url(#SVGID_305_);}
	.st131{clip-path:url(#SVGID_309_);}
	.st132{clip-path:url(#SVGID_313_);}
	.st133{clip-path:url(#SVGID_317_);}
	.st134{clip-path:url(#SVGID_321_);}
	.st135{clip-path:url(#SVGID_325_);}
	.st136{clip-path:url(#SVGID_327_);}
	.st137{clip-path:url(#SVGID_331_);}
	.st138{clip-path:url(#SVGID_335_);}
	.st139{clip-path:url(#SVGID_339_);}
	.st140{clip-path:url(#SVGID_343_);}
	.st141{clip-path:url(#SVGID_347_);}
	.st142{clip-path:url(#SVGID_351_);}
	.st143{clip-path:url(#SVGID_355_);}
	.st144{clip-path:url(#SVGID_359_);}
	.st145{clip-path:url(#SVGID_363_);}
	.st146{clip-path:url(#SVGID_367_);}
	.st147{clip-path:url(#SVGID_369_);}
	.st148{clip-path:url(#SVGID_373_);}
	.st149{clip-path:url(#SVGID_377_);}
	.st150{clip-path:url(#SVGID_381_);}
	.st151{clip-path:url(#SVGID_385_);}
	.st152{clip-path:url(#SVGID_389_);}
	.st153{clip-path:url(#SVGID_393_);}
	.st154{fill:#00D525;}
	.st155{clip-path:url(#SVGID_345_);fill:#02304E;}
	.st156{clip-path:url(#SVGID_299_);fill:#FAAF43;}
	.st157{clip-path:url(#SVGID_73_);fill:#FFFFFF;}
	.st158{clip-path:url(#SVGID_315_);fill:#FFFFFF;}
	.st159{clip-path:url(#SVGID_26_);fill:#FAAF43;}
	.st160{fill:#3B3B3B;}
	.st161{clip-path:url(#SVGID_43_);fill:#F2F2F2;}
	.st162{clip-path:url(#SVGID_115_);fill:#434244;}
	.st163{fill:#3C4755;}
	.st164{clip-path:url(#SVGID_277_);fill:#FFFFFF;}
	.st165{clip-path:url(#SVGID_329_);fill:#F2F2F2;}
	.st166{fill:url(#SVGID_35_);}
	.st167{fill:#D91A21;}
	.st168{fill:#70959F;}
	.st169{clip-path:url(#SVGID_163_);fill:#FAAF43;}
	.st170{clip-path:url(#SVGID_4_);fill:#FFFFFF;}
	.st171{clip-path:url(#SVGID_10_);}
	.st172{clip-path:url(#SVGID_14_);}
	.st173{clip-path:url(#SVGID_18_);}
	.st174{clip-path:url(#SVGID_20_);}
	.st175{clip-path:url(#SVGID_24_);}
	.st176{clip-path:url(#SVGID_28_);}
	.st177{clip-path:url(#SVGID_32_);}
	.st178{clip-path:url(#SVGID_37_);}
	.st179{clip-path:url(#SVGID_41_);}
	.st180{clip-path:url(#SVGID_45_);}
	.st181{clip-path:url(#SVGID_49_);}
	.st182{clip-path:url(#SVGID_53_);}
	.st183{clip-path:url(#SVGID_55_);}
	.st184{clip-path:url(#SVGID_59_);}
	.st185{clip-path:url(#SVGID_63_);}
	.st186{clip-path:url(#SVGID_67_);}
	.st187{clip-path:url(#SVGID_71_);}
	.st188{clip-path:url(#SVGID_75_);}
	.st189{clip-path:url(#SVGID_79_);}
	.st190{clip-path:url(#SVGID_83_);}
	.st191{clip-path:url(#SVGID_87_);}
	.st192{clip-path:url(#SVGID_89_);}
	.st193{clip-path:url(#SVGID_93_);}
	.st194{clip-path:url(#SVGID_97_);}
	.st195{clip-path:url(#SVGID_365_);enable-background:new    ;}
	.st196{clip-path:url(#SVGID_221_);enable-background:new    ;}
	.st197{clip-path:url(#SVGID_187_);enable-background:new    ;}
	.st198{clip-path:url(#SVGID_371_);fill:#F2F2F2;}
	.st199{clip-path:url(#SVGID_149_);fill:#434244;}
	.st200{clip-path:url(#SVGID_141_);fill:#FFFFFF;}
	.st201{clip-path:url(#SVGID_251_);fill:#434244;}
	.st202{clip-path:url(#SVGID_197_);fill:#FAAF43;}
	.st203{clip-path:url(#SVGID_213_);fill:#FFFFFF;}
	.st204{clip-path:url(#SVGID_307_);fill:#FAAF43;}
	.st205{fill:#434244;}
	.st206{clip-path:url(#SVGID_81_);fill:#434244;}
	.st207{clip-path:url(#SVGID_175_);fill:#FFFFFF;}
	.st208{clip-path:url(#SVGID_227_);fill:#F2F2F2;}
]]></style><defs><path id="SVGID_1_" d="M175.6-672.4L68.9-651.5l5.5-252.3 106.2 2z"/></defs><clipPath id="SVGID_2_"><use xlink:href="#SVGID_1_" overflow="visible"/></clipPath><g class="st41"><defs><path id="SVGID_3_" d="M2780.834 451.46l-3446.4-4.068 2.205-1867.3 3446.4 4.07z"/></defs><clipPath id="SVGID_4_"><use xlink:href="#SVGID_3_" overflow="visible"/></clipPath></g><defs><path id="SVGID_5_" d="M205.9-901.3c-.7 36.3-30.7 65.2-67 64.5-36.3-.7-65.2-30.7-64.5-67 .7-36.3 30.7-65.2 67-64.5 36.3.6 65.2 30.6 64.5 67"/></defs><clipPath id="SVGID_6_"><use xlink:href="#SVGID_5_" overflow="visible"/></clipPath><g class="st42"><defs><path id="SVGID_7_" d="M2780.834 451.46l-3446.4-4.068 2.205-1867.3 3446.4 4.07z"/></defs><clipPath id="SVGID_8_"><use xlink:href="#SVGID_7_" overflow="visible"/></clipPath></g><defs><path id="SVGID_9_" d="M105.2-909.8c-7.9 0-11 8.6-10.9 2.7.1-5.9 5-10.6 10.9-10.5 5.9.1 10.6 5 10.5 10.9-.1 5.9-2.6-3.1-10.5-3.1z"/></defs><clipPath id="SVGID_10_"><use xlink:href="#SVGID_9_" overflow="visible"/></clipPath><g class="st171"><defs><path id="SVGID_11_" d="M2780.834 451.46l-3446.4-4.068 2.205-1867.3 3446.4 4.07z"/></defs><clipPath id="SVGID_12_"><use xlink:href="#SVGID_11_" overflow="visible"/></clipPath></g><g><defs><path id="SVGID_13_" d="M178.8-807l-32.1-1.7 4.6-91.3 32.1 1.6z"/></defs><clipPath id="SVGID_14_"><use xlink:href="#SVGID_13_" overflow="visible"/></clipPath><g class="st172"><defs><path id="SVGID_15_" d="M2780.834 451.46l-3446.4-4.068 2.205-1867.3 3446.4 4.07z"/></defs><clipPath id="SVGID_16_"><use xlink:href="#SVGID_15_" overflow="visible"/></clipPath></g></g><g><defs><path id="SVGID_23_" d="M137-856.2C126.6-808 228.6-737.7 271-768c44.2-31.6-37.7-47.7-40.4-80.1-2.8-32.7-11.4-43.5-39.6-49.5 0 0-43.7-6.8-54 41.4z"/></defs><clipPath id="SVGID_18_"><use xlink:href="#SVGID_23_" overflow="visible"/></clipPath><g class="st173"><defs><path id="SVGID_25_" d="M2780.834 451.46l-3446.4-4.068 2.205-1867.3 3446.4 4.07z"/></defs><clipPath id="SVGID_20_"><use xlink:href="#SVGID_25_" overflow="visible"/></clipPath></g></g><g><defs><path id="SVGID_27_" d="M284-785.5c1-17.1-32.9-30.5-47.3-48.6l-41.2-23.2-31.8 13.4s-.7 9.6 12.3 24c11.3 12.4 27.6 25.3 52.1 33.3 27.5 9 50.5 2.8 55.9 1.1z"/></defs><clipPath id="SVGID_22_"><use xlink:href="#SVGID_27_" overflow="visible"/></clipPath><g clip-path="url(#SVGID_22_)"><defs><path id="SVGID_29_" d="M2780.834 451.46l-3446.4-4.068 2.205-1867.3 3446.4 4.07z"/></defs><clipPath id="SVGID_24_"><use xlink:href="#SVGID_29_" overflow="visible"/></clipPath></g></g><g><defs><path id="SVGID_31_" d="M151.3-841.1c8.4 23.2 44.3 28.9 79.9 30.1 35.5 1.1 70.6-2.2 80.5-26.3 20.8-50.2-57.2-20.5-76.7-46.5-19.7-26.3-32.7-30.8-59.8-21 0 0-40.7 17.3-23.9 63.7z"/></defs><clipPath id="SVGID_26_"><use xlink:href="#SVGID_31_" overflow="visible"/></clipPath><g clip-path="url(#SVGID_26_)"><defs><path id="SVGID_33_" d="M2780.834 451.46l-3446.4-4.068 2.205-1867.3 3446.4 4.07z"/></defs><clipPath id="SVGID_28_"><use xlink:href="#SVGID_33_" overflow="visible"/></clipPath></g></g><g><defs><path id="SVGID_36_" d="M175.6 371.6L68.9 392.5l5.5-252.3 106.2 2z"/></defs><use xlink:href="#SVGID_36_" overflow="visible" fill-rule="evenodd" clip-rule="evenodd" fill="#F2F2F2"/><clipPath id="SVGID_30_"><use xlink:href="#SVGID_36_" overflow="visible"/></clipPath><g clip-path="url(#SVGID_30_)"><defs><path id="SVGID_38_" d="M2780.834 1495.46l-3446.4-4.07 2.205-1867.3 3446.4 4.07z"/></defs><use xlink:href="#SVGID_38_" overflow="visible" fill="#F2F2F2"/><clipPath id="SVGID_32_"><use xlink:href="#SVGID_38_" overflow="visible"/></clipPath><path clip-path="url(#SVGID_32_)" fill="#F2F2F2" d="M53.2 408.1l145.2.2-2.1-283.6-145.2-.2z"/></g><defs><path id="SVGID_40_" d="M205.9 142.7c-.7 36.3-30.7 65.2-67 64.5-36.3-.7-65.2-30.7-64.5-67 .7-36.3 30.7-65.2 67-64.5 36.3.6 65.2 30.6 64.5 67"/></defs><use xlink:href="#SVGID_40_" overflow="visible" fill-rule="evenodd" clip-rule="evenodd" fill="#F2F2F2"/><clipPath id="SVGID_34_"><use xlink:href="#SVGID_40_" overflow="visible"/></clipPath><g clip-path="url(#SVGID_34_)"><defs><path id="SVGID_42_" d="M2780.834 1495.46l-3446.4-4.07 2.205-1867.3 3446.4 4.07z"/></defs><use xlink:href="#SVGID_42_" overflow="visible" fill="#F2F2F2"/><clipPath id="SVGID_35_"><use xlink:href="#SVGID_42_" overflow="visible"/></clipPath><path transform="rotate(-180 140.15 141.437)" clip-path="url(#SVGID_35_)" fill="#F2F2F2" d="M58.7 60h162.9v162.9H58.7z"/></g><g><defs><path id="SVGID_44_" d="M105.2 134.2c-7.9 0-11 8.6-10.9 2.7.1-5.9 5-10.6 10.9-10.5 5.9.1 10.6 5 10.5 10.9-.1 5.9-2.6-3.1-10.5-3.1z"/></defs><clipPath id="SVGID_37_"><use xlink:href="#SVGID_44_" overflow="visible"/></clipPath><g class="st178"><defs><path id="SVGID_46_" d="M2780.834 1495.46l-3446.4-4.07 2.205-1867.3 3446.4 4.07z"/></defs><clipPath id="SVGID_39_"><use xlink:href="#SVGID_46_" overflow="visible"/></clipPath><path transform="rotate(-180 105 132.783)" clip-path="url(#SVGID_39_)" fill="#434244" d="M78.6 110.7h52.8v44.2H78.6z"/></g></g><g><defs><path id="SVGID_48_" d="M178.8 237l-32.1-1.7 4.6-91.3 32.1 1.6z"/></defs><clipPath id="SVGID_41_"><use xlink:href="#SVGID_48_" overflow="visible"/></clipPath><g class="st179"><defs><path id="SVGID_50_" d="M2780.834 1495.46l-3446.4-4.07 2.205-1867.3 3446.4 4.07z"/></defs><clipPath id="SVGID_43_"><use xlink:href="#SVGID_50_" overflow="visible"/></clipPath><g clip-path="url(#SVGID_43_)"><defs><path id="SVGID_52_" d="M182.55 238.633l-40.7-.048.112-94 40.7.048z"/></defs><clipPath id="SVGID_45_"><use xlink:href="#SVGID_52_" overflow="visible"/></clipPath><g class="st180"><defs><path id="SVGID_54_" d="M180.5 145.5c-10.1 3.8-37.7 18.1-30.2 57.9 2.5 13.3 13.4 24.7 28.5 33.5l1.7-91.4z"/></defs><clipPath id="SVGID_47_"><use xlink:href="#SVGID_54_" overflow="visible"/></clipPath><g clip-path="url(#SVGID_47_)"><defs><path id="SVGID_56_" d="M185.72 238.608l-40.7-.048.114-97.1 40.7.048z"/></defs><clipPath id="SVGID_49_"><use xlink:href="#SVGID_56_" overflow="visible"/></clipPath><path transform="rotate(-180 164.77 191.23)" clip-path="url(#SVGID_49_)" fill="#F2F2F2" d="M133.4 129.8h62.7v122.8h-62.7z"/></g></g></g></g></g><g><defs><path id="SVGID_58_" d="M137 187.8C126.6 236 228.6 306.3 271 276c44.2-31.6-37.7-47.7-40.4-80.1-2.8-32.7-11.4-43.5-39.6-49.5 0 0-43.7-6.8-54 41.4z"/></defs><clipPath id="SVGID_51_"><use xlink:href="#SVGID_58_" overflow="visible"/></clipPath><g clip-path="url(#SVGID_51_)"><defs><path id="SVGID_60_" d="M2780.834 1495.46l-3446.4-4.07 2.205-1867.3 3446.4 4.07z"/></defs><clipPath id="SVGID_53_"><use xlink:href="#SVGID_60_" overflow="visible"/></clipPath><path transform="rotate(-147.933 212.96 217.026)" clip-path="url(#SVGID_53_)" fill="#FAAF43" d="M113.3 148.4h199.3v137.2H113.3z"/></g></g><g><defs><path id="SVGID_62_" d="M284 258.5c1-17.1-32.9-30.5-47.3-48.6l-41.2-23.2-31.8 13.4s-.7 9.6 12.3 24c11.3 12.4 27.6 25.3 52.1 33.3 27.5 9 50.5 2.8 55.9 1.1z"/></defs><clipPath id="SVGID_55_"><use xlink:href="#SVGID_62_" overflow="visible"/></clipPath><g class="st183"><defs><path id="SVGID_64_" d="M2780.834 1495.46l-3446.4-4.07 2.205-1867.3 3446.4 4.07z"/></defs><clipPath id="SVGID_57_"><use xlink:href="#SVGID_64_" overflow="visible"/></clipPath><path transform="rotate(-180 223.905 224.45)" clip-path="url(#SVGID_57_)" fill="#DF9122" d="M148 171.1h151.7v106.7H148z"/></g></g><g><defs><path id="SVGID_66_" d="M151.3 202.9c8.4 23.2 44.3 28.9 79.9 30.1 35.5 1.1 70.6-2.2 80.5-26.3 20.8-50.2-57.2-20.5-76.7-46.5-19.7-26.3-32.7-30.8-59.8-21 0 0-40.7 17.3-23.9 63.7z"/></defs><clipPath id="SVGID_59_"><use xlink:href="#SVGID_66_" overflow="visible"/></clipPath><g class="st184"><defs><path id="SVGID_68_" d="M2780.834 1495.46l-3446.4-4.07 2.205-1867.3 3446.4 4.07z"/></defs><clipPath id="SVGID_61_"><use xlink:href="#SVGID_68_" overflow="visible"/></clipPath><path class="st69" d="M330.803 248.952l-199.3-.235.154-130.1 199.3.235z"/></g></g></g><g><defs><path id="SVGID_70_" d="M700.6-672.4l-106.7 20.9 5.5-252.3 106.2 2z"/></defs><clipPath id="SVGID_63_"><use xlink:href="#SVGID_70_" overflow="visible"/></clipPath><g class="st185"><defs><path id="SVGID_72_" d="M3305.834 451.46l-3446.4-4.068 2.204-1867.3 3446.4 4.07z"/></defs><clipPath id="SVGID_65_"><use xlink:href="#SVGID_72_" overflow="visible"/></clipPath></g><defs><path id="SVGID_74_" d="M730.9-901.3c-.7 36.3-30.7 65.2-67 64.5-36.3-.7-65.2-30.7-64.5-67 .7-36.3 30.7-65.2 67-64.5 36.3.6 65.2 30.6 64.5 67"/></defs><clipPath id="SVGID_67_"><use xlink:href="#SVGID_74_" overflow="visible"/></clipPath><g class="st186"><defs><path id="SVGID_76_" d="M3305.834 451.46l-3446.4-4.068 2.204-1867.3 3446.4 4.07z"/></defs><clipPath id="SVGID_69_"><use xlink:href="#SVGID_76_" overflow="visible"/></clipPath></g><defs><path id="SVGID_78_" d="M630.2-909.8c-7.9 0-11 8.6-10.9 2.7.1-5.9 5-10.6 10.9-10.5 5.9.1 10.6 5 10.5 10.9-.1 5.9-2.6-3.1-10.5-3.1z"/></defs><clipPath id="SVGID_71_"><use xlink:href="#SVGID_78_" overflow="visible"/></clipPath><g class="st187"><defs><path id="SVGID_80_" d="M3305.834 451.46l-3446.4-4.068 2.204-1867.3 3446.4 4.07z"/></defs><clipPath id="SVGID_73_"><use xlink:href="#SVGID_80_" overflow="visible"/></clipPath></g><g><defs><path id="SVGID_82_" d="M703.8-807l-32.1-1.7 4.6-91.3 32.1 1.6z"/></defs><clipPath id="SVGID_75_"><use xlink:href="#SVGID_82_" overflow="visible"/></clipPath><g class="st188"><defs><path id="SVGID_84_" d="M3305.834 451.46l-3446.4-4.068 2.204-1867.3 3446.4 4.07z"/></defs><clipPath id="SVGID_77_"><use xlink:href="#SVGID_84_" overflow="visible"/></clipPath></g></g><g><defs><path id="SVGID_92_" d="M662-856.2C651.6-808 753.6-737.7 796-768c44.2-31.6-37.7-47.7-40.4-80.1-2.8-32.7-11.4-43.5-39.6-49.5 0 0-43.7-6.8-54 41.4z"/></defs><clipPath id="SVGID_79_"><use xlink:href="#SVGID_92_" overflow="visible"/></clipPath><g class="st189"><defs><path id="SVGID_94_" d="M3305.834 451.46l-3446.4-4.068 2.204-1867.3 3446.4 4.07z"/></defs><clipPath id="SVGID_81_"><use xlink:href="#SVGID_94_" overflow="visible"/></clipPath></g></g><g><defs><path id="SVGID_96_" d="M809-785.5c1-17.1-32.9-30.5-47.3-48.6l-41.2-23.2-31.8 13.4s-.7 9.6 12.3 24c11.3 12.4 27.6 25.3 52.1 33.3 27.5 9 50.5 2.8 55.9 1.1z"/></defs><clipPath id="SVGID_83_"><use xlink:href="#SVGID_96_" overflow="visible"/></clipPath><g class="st190"><defs><path id="SVGID_98_" d="M3305.834 451.46l-3446.4-4.068 2.204-1867.3 3446.4 4.07z"/></defs><clipPath id="SVGID_85_"><use xlink:href="#SVGID_98_" overflow="visible"/></clipPath></g></g><g><defs><path id="SVGID_100_" d="M676.3-841.1c8.4 23.2 44.3 28.9 79.9 30.1 35.5 1.1 70.6-2.2 80.5-26.3 20.8-50.2-57.2-20.5-76.7-46.5-19.7-26.3-32.7-30.8-59.8-21 0 0-40.7 17.3-23.9 63.7z"/></defs><clipPath id="SVGID_87_"><use xlink:href="#SVGID_100_" overflow="visible"/></clipPath><g class="st191"><defs><path id="SVGID_102_" d="M3305.834 451.46l-3446.4-4.068 2.204-1867.3 3446.4 4.07z"/></defs><clipPath id="SVGID_89_"><use xlink:href="#SVGID_102_" overflow="visible"/></clipPath></g></g></g></svg>