<svg xmlns="http://www.w3.org/2000/svg" width="500" height="500" viewBox="0 0 500 500"><path fill-opacity=".04" d="M95.337 488.668l4.429-223.319 156.152 2.735-1.97 220.584H95.337zm198.821-314.622c-.936 53.411-44.987 95.945-98.394 95.004-53.413-.931-95.949-44.99-95.009-98.39.936-53.415 44.99-95.949 98.394-95.013 53.412.939 95.946 44.986 95.009 98.399"/><path fill="#FFF" d="M231.522 488.668H76.132l6.199-328.083 156.152 2.737"/><path fill="#FFF" d="M275.733 163.977c-.936 53.409-44.987 95.942-98.394 95.006-53.413-.936-95.949-44.992-95.009-98.394.936-53.413 44.99-95.947 98.394-95.014 53.411.941 95.945 44.987 95.009 98.402"/><path fill="#434244" d="M127.06 171.626c-8.688-.158-15.618-7.328-15.467-16.037.153-8.688 7.323-15.618 16.019-15.468 8.702.158 15.627 7.335 15.474 16.03-.152 8.692-7.324 15.621-16.026 15.475z"/><path fill="#FFF" d="M120.802 153.939c2.544 0 4.606-2.062 4.606-4.606 0-2.543-2.062-4.606-4.606-4.606-2.543 0-4.606 2.062-4.606 4.606 0 2.543 2.063 4.606 4.606 4.606z"/><g transform="translate(28 32)"><defs><filter id="a" filterUnits="userSpaceOnUse" x="164.234" y="136.185" width="46.162" height="134.504"><feColorMatrix values="1 0 0 0 0 0 1 0 0 0 0 0 1 0 0 0 0 0 1 0"/></filter></defs><mask maskUnits="userSpaceOnUse" x="164.234" y="136.185" width="46.162" height="134.504" id="b"><path fill="#FFF" d="M164.166 135.11h47.226v134.459h-47.226V135.11z" filter="url(#a)"/></mask><path mask="url(#b)" fill="#F2F2F2" d="M210.396 136.185c-14.858 5.664-55.404 26.74-44.243 85.23 3.713 19.473 19.766 36.328 41.891 49.274l2.352-134.504z"/></g><path fill="#FAAF43" d="M230.532 158.896s-59.808 25.591-35.058 93.754c24.745 68.167 206.607 76.179 235.847 5.316 30.48-73.862-84.163-30.069-112.831-68.28-28.996-38.64-48.15-45.241-87.958-30.79"/><path fill="#00507A" d="M221.902 70.128l-4.046-45.109S117.172-8.653 58.582 78.529l24.188 58.892 64.357-54.538 74.775-12.755z"/><path fill="#002F47" d="M82.769 137.421s65.262-90.979 164.191-87.998c68.822 2.071 31.774 32.898 8.77 54.731 0 0-10.654-16.448-65.781-8.848-56.637 7.806-107.18 42.115-107.18 42.115z"/><path fill="#CEE3ED" d="M127.114 190.789s-13.733 32.613-15.45 39.479c0 0-1.91 15.45 13.592 15.45 15.501 0 13.927-15.45 13.927-15.45-15.501-39.479-12.069-39.479-12.069-39.479z"/></svg>