<svg xmlns="http://www.w3.org/2000/svg" width="500" height="500" viewBox="0 0 500 500"><g fill="#EFEFEF"><path d="M46.286 445.344l7.565-58.612 5.889-37.286c-29.908-33.424-45.687-73.025-45.687-114.803 0-106.958 105.857-193.974 235.972-193.974 130.116 0 235.971 87.017 235.971 193.974S380.141 428.616 250.025 428.616c-37.695 0-76.86-7.843-110.742-22.129l-92.997 38.857zm25.564-55.902l-3.477 26.946 64.874-27.102 6.462-2.465 3.417 1.502c31.937 14.039 70.9 22.091 106.899 22.091 120.079 0 217.77-78.851 217.77-175.773 0-96.921-97.691-175.773-217.77-175.773S32.254 137.721 32.254 234.642c0 38.466 15.149 75.012 43.808 105.683l3.033 3.244-7.245 45.873z"/><path d="M80.636 259.405c-.93-2.396-1.394-6.234-1.394-11.511 0-7.793 1.108-15.197 3.328-22.212.54-1.738 1.423-3.012 2.653-3.821 1.229-.81 2.952-1.214 5.17-1.214 1.199 0 2.038.15 2.518.45.479.3.72.869.72 1.708 0 .959-.45 3.118-1.349 6.475-.6 2.398-1.079 4.497-1.439 6.295-.359 1.798-.66 4.017-.899 6.654 1.979-5.155 4.195-9.352 6.655-12.589 2.458-3.238 4.871-5.545 7.239-6.925 2.368-1.378 4.542-2.068 6.52-2.068 1.918 0 3.372.495 4.362 1.484.989.989 1.483 2.443 1.483 4.361 0 1.56-.331 4.496-.989 8.812-.6 3.658-1.08 7.12-1.439 10.387-.36 3.268-.54 6.911-.54 10.925 0 2.279-.465 3.913-1.394 4.901-.93.989-2.443 1.484-4.541 1.484-1.979 0-3.418-.51-4.317-1.529s-1.349-2.548-1.349-4.586c0-2.397.418-6.354 1.259-11.871.72-4.796 1.079-7.853 1.079-9.172 0-.958-.33-1.439-.989-1.439-.78 0-1.875 1.004-3.282 3.013-1.409 2.009-2.848 4.662-4.316 7.958-1.47 3.298-2.652 6.774-3.552 10.432-.661 2.818-1.425 4.722-2.293 5.71-.87.989-2.235 1.484-4.092 1.484-2.28.002-3.883-1.197-4.812-3.596zM128.702 208.147c-.78-.599-1.169-1.559-1.169-2.878 0-.539.091-1.169.27-1.888.659-2.757 1.153-5.306 1.484-7.644.329-2.338.494-4.946.494-7.823 0-2.998.704-5.306 2.114-6.925 1.407-1.619 3.221-2.428 5.439-2.428 2.159 0 3.792.585 4.902 1.754 1.108 1.169 1.663 2.743 1.663 4.721 0 2.099-.629 4.887-1.889 8.363-1.258 3.478-2.787 6.866-4.586 10.163-1.199 2.218-2.144 3.687-2.832 4.405-.69.72-1.604 1.08-2.743 1.08-1.319-.001-2.368-.299-3.147-.9zM183.063 243.578c.449.719.674 1.709.674 2.968 0 2.399-.571 4.258-1.708 5.576-2.219 2.697-5.351 5.186-9.397 7.463-4.047 2.279-8.379 3.418-12.995 3.418-6.295 0-11.182-1.709-14.658-5.126-3.479-3.417-5.216-8.094-5.216-14.029 0-4.137.869-7.988 2.608-11.556 1.738-3.566 4.15-6.399 7.239-8.499 3.086-2.098 6.578-3.147 10.476-3.147 3.476 0 6.264 1.034 8.363 3.102 2.098 2.068 3.147 4.872 3.147 8.409 0 4.136-1.484 7.689-4.452 10.656-2.967 2.968-7.99 5.321-15.062 7.059 1.498 2.759 4.346 4.137 8.543 4.137 2.697 0 5.769-.944 9.217-2.833 3.447-1.888 6.43-4.361 8.948-7.419.719-.839 1.528-1.259 2.427-1.259.781.001 1.396.36 1.846 1.08zm-30.125-10.251c-1.529 2.579-2.292 5.697-2.292 9.353v.179c3.536-.838 6.324-2.097 8.363-3.776 2.037-1.678 3.057-3.627 3.057-5.846 0-1.138-.314-2.053-.944-2.743-.629-.688-1.484-1.034-2.562-1.034-2.221-.001-4.094 1.29-5.622 3.867z"/><path d="M186.029 262.822c-1.649-1.438-2.473-3.057-2.473-4.856 0-1.558.569-2.906 1.708-4.046 1.139-1.139 2.817-1.709 5.036-1.709.779 0 1.693.075 2.743.226 1.049.149 1.844.255 2.384.314-.061-1.559-.405-3.027-1.034-4.407-.629-1.378-1.425-2.712-2.384-4.001-.96-1.289-1.859-2.413-2.698-3.373-1.859 3.539-3.703 6.475-5.53 8.813-1.829 2.339-3.822 4.557-5.98 6.654-1.078 1.079-2.218 1.619-3.417 1.619-.96 0-1.739-.345-2.338-1.034-.599-.688-.899-1.543-.899-2.562 0-1.199.42-2.309 1.259-3.328l1.169-1.438c3.296-4.077 5.785-7.433 7.463-10.073 1.019-1.738 2.217-4.061 3.597-6.969 1.378-2.907 2.728-5.919 4.047-9.038 1.138-2.637 3.507-3.956 7.104-3.956 1.677 0 2.846.15 3.508.449.659.301.989.78.989 1.438 0 .36-.123.931-.362 1.709-.239.779-.569 1.56-.989 2.338-1.078 2.158-1.618 3.988-1.618 5.486 0 .899.315 1.888.946 2.968.627 1.079 1.603 2.428 2.921 4.046 1.919 2.518 3.374 4.662 4.363 6.43.989 1.769 1.483 3.702 1.483 5.8 0 .6-.062 1.438-.181 2.518 2.938-1.139 6.386-4.166 10.342-9.083.721-.839 1.529-1.259 2.427-1.259.778 0 1.396.359 1.845 1.079.449.719.672 1.709.672 2.968 0 2.279-.569 4.137-1.707 5.576-2.999 3.717-5.862 6.249-8.589 7.598-2.728 1.349-6.099 2.084-10.116 2.203-2.398 2.039-5.247 3.058-8.543 3.058-3.116 0-5.5-.718-7.148-2.158z"/><path d="M229.688 229.19c-.121 2.999-.179 5.336-.179 7.014 0 4.317.225 7.688.674 10.118.449 2.427 1.199 4.167 2.248 5.215 1.049 1.049 2.503 1.573 4.361 1.573.958 0 2.099-.3 3.417-.899 1.319-.599 2.518-1.378 3.597-2.338.659-.599 1.318-.899 1.979-.899.719 0 1.304.404 1.753 1.214.449.809.674 1.784.674 2.922 0 1.141-.225 2.249-.674 3.327-.449 1.079-1.125 1.979-2.023 2.697-3.119 2.579-6.656 3.868-10.611 3.868-5.698 0-9.863-2.384-12.5-7.149-2.639-4.766-3.957-10.986-3.957-18.66 0-2.637.09-5.306.27-8.003h-3.506c-1.798 0-3.012-.329-3.642-.989-.63-.66-.944-1.709-.944-3.148 0-3.357 1.348-5.036 4.046-5.036h5.126c1.019-6.593 2.577-12.619 4.676-18.075 2.097-5.455 4.631-9.802 7.599-13.04 2.967-3.237 6.16-4.856 9.578-4.856 2.517 0 4.495 1.11 5.935 3.328 1.438 2.218 2.157 5.006 2.157 8.363 0 9.293-3.898 17.386-11.689 24.28h10.071c.958 0 1.648.211 2.068.63.418.42.628 1.2.628 2.338 0 4.137-3.387 6.205-10.162 6.205h-10.97zm6.52-33.138c-1.11 2.248-2.159 5.366-3.147 9.352-.989 3.988-1.814 8.408-2.474 13.265 3.537-3.058 6.19-6.489 7.96-10.297 1.768-3.806 2.651-7.268 2.651-10.386 0-3.537-.659-5.306-1.978-5.306-.9 0-1.904 1.124-3.012 3.372zM325.684 243.578c.451.719.676 1.709.676 2.968 0 2.399-.571 4.258-1.71 5.576-2.577 3.179-5.351 5.785-8.317 7.823-2.968 2.038-6.341 3.058-10.116 3.058-3.179 0-5.756-1.139-7.734-3.418-3.417 2.219-6.985 3.357-10.701 3.418-.78 11.568-2.549 21.236-5.305 29.001-2.759 7.762-6.807 11.646-12.141 11.646-3.238 0-5.635-1.17-7.195-3.507-1.558-2.338-2.339-5.576-2.339-9.713 0-5.875 1.351-12.725 4.048-20.548s6.864-16.441 12.499-25.854c0-8.752-.06-14.837-.179-18.254-.061-1.739.63-3.117 2.068-4.137 1.439-1.019 3.238-1.529 5.395-1.529 1.259 0 2.174.255 2.745.765.568.51.883 1.514.943 3.012 0 1.5.028 2.608.09 3.328 1.918-2.397 3.806-4.121 5.665-5.171 1.857-1.048 3.836-1.574 5.936-1.574 3.355 0 6.098 1.349 8.229 4.046 2.126 2.698 3.19 6.236 3.19 10.611 0 3.179-.508 6.265-1.528 9.263s-2.427 5.726-4.226 8.183c1.259.358 2.308.539 3.147.539 1.979 0 3.867-.719 5.666-2.158 1.798-1.438 4.105-3.835 6.924-7.194.719-.839 1.528-1.259 2.427-1.259.777 0 1.393.359 1.843 1.079zm-50.583 40.693c1.079-7.046 1.767-15.813 2.068-26.305-2.579 5.996-4.617 11.721-6.115 17.176-1.497 5.455-2.249 10.042-2.249 13.76 0 1.918.227 3.388.675 4.406.45 1.018.976 1.528 1.574 1.528 1.618 0 2.967-3.523 4.047-10.565zm19.108-33.454c1.828-1.889 3.282-4.226 4.361-7.014 1.079-2.788 1.62-5.71 1.62-8.768 0-1.798-.36-3.162-1.08-4.091-.719-.929-1.679-1.395-2.878-1.395-2.157 0-4.765 2.279-7.822 6.835-.062 2.639-.09 6.505-.09 11.601 0 2.758-.031 4.887-.091 6.384 2.159-.479 4.151-1.663 5.98-3.552z"/><path d="M321.231 258.956c-2.219-2.697-3.327-6.235-3.327-10.612 0-4.795 1.108-9.337 3.327-13.624 2.218-4.285 5.171-7.733 8.859-10.341 3.685-2.607 7.597-3.912 11.733-3.912 1.319 0 2.204.255 2.653.765.449.51.824 1.424 1.125 2.743 1.259-.239 2.576-.36 3.955-.36 2.938 0 4.407 1.05 4.407 3.147 0 1.259-.449 4.258-1.35 8.992-1.378 6.896-2.068 11.691-2.068 14.389 0 .899.227 1.619.676 2.159.449.539 1.034.809 1.754.809 1.137 0 2.517-.733 4.137-2.203 1.618-1.468 3.807-3.852 6.564-7.149.72-.839 1.528-1.259 2.427-1.259.779 0 1.395.359 1.844 1.079.449.719.675 1.709.675 2.968 0 2.399-.571 4.258-1.709 5.576-2.46 3.057-5.065 5.635-7.823 7.732-2.759 2.1-5.427 3.148-8.004 3.148-1.978 0-3.792-.675-5.44-2.023s-2.893-3.192-3.731-5.531c-3.119 5.036-7.045 7.555-11.781 7.555-3.717-.001-6.685-1.351-8.903-4.048zm15.917-7.374c1.199-1.559 2.068-3.627 2.607-6.205l3.327-16.547c-2.517.061-4.841 1.004-6.969 2.833-2.128 1.829-3.821 4.243-5.08 7.239-1.26 2.999-1.89 6.176-1.89 9.532 0 1.859.375 3.238 1.125 4.137.748.899 1.782 1.349 3.103 1.349 1.319 0 2.578-.778 3.777-2.338z"/><path d="M370.915 262.822c-1.649-1.438-2.473-3.057-2.473-4.856 0-1.558.569-2.906 1.708-4.046 1.14-1.139 2.818-1.709 5.037-1.709.777 0 1.693.075 2.742.226 1.049.149 1.844.255 2.384.314-.062-1.559-.405-3.027-1.034-4.407-.631-1.378-1.426-2.712-2.384-4.001-.96-1.289-1.858-2.413-2.696-3.373-1.86 3.539-3.704 6.475-5.531 8.813-1.829 2.339-3.822 4.557-5.98 6.654-1.08 1.079-2.219 1.619-3.418 1.619-.96 0-1.738-.345-2.338-1.034-.598-.688-.898-1.543-.898-2.562 0-1.199.42-2.309 1.259-3.328l1.168-1.438c3.297-4.077 5.785-7.433 7.466-10.073 1.077-1.738 2.172-3.806 3.281-6.204 1.109-2.397 2.563-5.666 4.361-9.803 1.138-2.637 3.507-3.956 7.104-3.956 1.68 0 2.848.15 3.509.449.659.301.988.78.988 1.438 0 .36-.121.931-.36 1.709-.239.779-.57 1.56-.989 2.338-1.079 2.158-1.617 3.988-1.617 5.486 0 .899.313 1.888.944 2.968.628 1.079 1.603 2.428 2.922 4.046 1.919 2.518 3.372 4.662 4.361 6.43.989 1.769 1.484 3.702 1.484 5.8 0 2.518-.586 4.901-1.754 7.149-1.17 2.247-2.804 4.062-4.9 5.44-2.1 1.377-4.498 2.067-7.194 2.067-3.121.002-5.504-.716-7.152-2.156zM400.142 260.845c-1.349-1.439-2.023-3.328-2.023-5.666 0-2.698.765-4.855 2.293-6.475 1.529-1.619 3.672-2.428 6.43-2.428 2.637 0 4.632.645 5.98 1.933 1.348 1.291 2.023 3.193 2.023 5.71 0 2.758-.78 4.961-2.338 6.61-1.56 1.648-3.688 2.473-6.385 2.473-2.639.001-4.633-.719-5.98-2.157zm6.429-20.144c-.78-.54-1.17-1.379-1.17-2.518l.091-.72c1.018-6.713 2.396-14.357 4.136-22.931 1.739-8.573 3.356-15.977 4.856-22.212.957-3.836 3.566-5.756 7.823-5.756 3.837 0 5.757 1.23 5.757 3.688 0 .539-.091 1.14-.271 1.799-1.561 6.355-3.629 14.043-6.205 23.065-2.579 9.024-5.036 16.862-7.375 23.516-.658 1.919-2.218 2.877-4.676 2.877-1.197.001-2.186-.269-2.966-.808z"/></g></svg>